<?xml version="1.0" standalone="no"?>
<!DOCTYPE svg PUBLIC "-//W3C//DTD SVG 1.1//EN" "http://www.w3.org/Graphics/SVG/1.1/DTD/svg11.dtd" >
<svg xmlns="http://www.w3.org/2000/svg">
<metadata>Generated by IcoMoon</metadata>
<defs>
<font id="icomoon" horiz-adv-x="1024">
<font-face units-per-em="1024" ascent="960" descent="-64" />
<missing-glyph horiz-adv-x="1024" />
<glyph unicode="&#x20;" horiz-adv-x="512" d="" />
<glyph unicode="&#xe900;" glyph-name="lock" d="M781.312 554.496h-32.768v92.16c0 135.68-111.104 246.784-246.784 246.784s-246.784-111.104-246.784-246.784v-92.16h-32.768c-32.256 0-58.368-26.112-58.368-58.368v-436.224c0-32.256 26.112-58.368 58.368-58.368h559.104c32.256 0 58.368 26.112 58.368 58.368v436.224c0 31.744-26.624 58.368-58.368 58.368zM329.216 646.656c0 95.232 77.312 172.544 172.544 172.544s172.544-77.312 172.544-172.544v-92.16h-345.088v92.16zM765.44 75.776v0h-527.36v404.48h527.36v-404.48zM501.76 131.072c20.48 0 37.376 16.384 37.376 37.376v95.744c0 20.48-16.384 37.376-37.376 37.376-20.48 0-37.376-16.384-37.376-37.376v-95.744c0-20.48 16.384-37.376 37.376-37.376z" />
<glyph unicode="&#xe901;" glyph-name="chart" horiz-adv-x="1100" d="M947.367 782.077c-59.53 0-107.731-48.423-107.731-107.953 0-12.217 1.999-23.767 5.775-34.652l-188.807-207.688c-8.441 1.999-17.104 3.11-26.211 3.11-11.551 0-22.879-1.777-33.319-5.331l-54.199 49.756c1.999 8.219 3.11 16.882 3.11 25.989 0 59.53-48.423 107.953-107.731 107.953-59.53 0-107.731-48.423-107.731-107.953 0-11.106 1.777-21.768 4.665-31.764l-149.713-152.378c-9.107 2.443-18.881 3.998-28.876 3.998-59.53 0-107.731-48.423-107.731-107.953s48.423-107.953 107.731-107.953c59.53 0 107.731 48.423 107.731 107.953 0 10.662-1.555 21.102-4.443 30.653l150.379 153.267c8.885-2.443 18.214-3.776 27.988-3.776 11.773 0 23.101 1.999 33.541 5.331l53.977-49.534c-1.999-8.441-3.332-17.104-3.332-26.211 0-59.53 48.423-107.953 107.731-107.953 59.53 0 107.731 48.423 107.731 107.953 0 11.773-1.777 22.879-5.331 33.541l189.695 208.576c7.997-1.999 16.215-2.888 24.878-2.888 59.53 0 107.731 48.423 107.731 107.953 0.444 59.53-47.979 107.953-107.509 107.953zM156.599 168.566c-26.877 0-48.868 21.99-48.868 48.868s21.768 48.868 48.868 48.868c26.877 0 48.868-21.99 48.868-48.868s-21.99-48.868-48.868-48.868zM438.254 456.663c-26.877 0-48.868 21.99-48.868 48.868s21.768 48.868 48.868 48.868c26.877 0 48.868-21.99 48.868-48.868-0.222-26.877-21.99-48.868-48.868-48.868zM630.393 278.518c-26.877 0-48.868 21.99-48.868 48.868s21.768 48.868 48.868 48.868c26.877 0 48.868-21.99 48.868-48.868-0.222-27.099-21.99-48.868-48.868-48.868zM947.367 625.479c-26.877 0-48.868 21.99-48.868 48.868s21.768 48.868 48.868 48.868c26.877 0 48.868-21.99 48.868-48.868s-21.99-48.868-48.868-48.868z" />
<glyph unicode="&#xe902;" glyph-name="close" d="M672.768 447.488l269.824 266.752c42.496 41.984 42.496 110.592 0 153.088-42.496 41.984-112.128 41.984-154.624 0l-269.824-266.752-269.824 266.24c-42.496 41.984-112.128 41.984-154.624 0s-42.496-110.592 0-153.088l269.824-266.24-269.824-266.752c-42.496-41.984-42.496-110.592 0-153.088 21.504-20.992 49.152-31.744 77.312-31.744s55.808 10.752 77.312 31.744l269.824 266.752 269.824-266.752c21.504-20.992 49.152-31.744 77.312-31.744s55.808 10.752 77.312 31.744c42.496 41.984 42.496 110.592 0 153.088l-269.824 266.752z" />
<glyph unicode="&#xe903;" glyph-name="home" d="M967.168 494.080l-142.848 142.848v164.864c0 29.696-24.064 53.76-54.272 53.76-29.696 0-53.76-24.064-53.76-53.76v-56.832l-106.496 106.496c-52.224 52.224-143.36 52.224-196.096-0.512l-356.864-356.864c-20.992-20.992-20.992-55.296 0-76.288s55.296-20.992 76.288 0l356.864 356.864c11.776 11.776 32.256 11.776 43.52 0l356.864-356.864c10.752-10.752 24.576-15.872 38.4-15.872s27.648 5.12 38.4 15.872c20.992 21.504 20.992 55.296 0 76.288zM530.944 672.256c-10.24 10.24-27.136 10.24-37.376 0l-314.368-313.856c-5.12-5.12-7.68-11.776-7.68-18.944v-228.864c0-53.76 43.52-97.28 97.28-97.28h155.648v240.64h175.616v-240.64h155.648c53.76 0 97.28 43.52 97.28 97.28v228.864c0 7.168-2.56 13.824-7.68 18.944l-314.368 313.856z" />
<glyph unicode="&#xe904;" glyph-name="menu" d="M44.544 834.048v-144.896h943.616v144.896h-943.616zM45.056 516.608v-144.896h942.592v144.896h-942.592zM44.544 40.96h943.616v144.896h-943.616v-144.896z" />
<glyph unicode="&#xe905;" glyph-name="search" d="M943.616 130.048l-200.192 200.192c-10.752 10.752-23.552 17.408-37.376 19.968 95.744 137.728 82.432 328.192-39.936 451.072-137.728 137.728-361.984 137.728-499.712 0s-137.728-361.472 0-499.2c122.368-122.368 313.344-135.68 451.072-39.936 3.072-13.824 9.728-26.624 19.968-37.376l200.192-200.192c29.184-29.184 76.288-29.184 105.472 0 29.696 29.184 29.696 76.288 0.512 105.472zM602.624 365.568c-102.912-102.912-269.824-102.912-372.736 0s-102.912 269.824 0 372.736c102.912 102.912 269.824 102.912 372.736 0s102.912-270.336 0-372.736z" />
<glyph unicode="&#xe906;" glyph-name="sort" horiz-adv-x="1100" d="M912.715 331.384c-9.107 8.885-19.991 13.105-32.652 13.105h-648.163c-12.439 0-23.323-4.443-32.652-13.105-9.107-8.663-13.772-19.103-13.772-31.098s4.665-22.435 13.772-31.098l324.082-310.31c9.107-8.885 19.991-13.105 32.652-13.105 12.439 0 23.323 4.443 32.652 13.105l324.082 310.31c9.107 8.663 13.772 19.103 13.772 31.098s-4.665 22.435-13.772 31.098zM912.715 627.033l-324.082 310.31c-9.107 8.885-19.991 13.105-32.652 13.105s-23.323-4.443-32.652-13.105l-323.859-310.31c-9.107-8.663-13.772-19.103-13.772-31.098s4.665-22.435 13.772-31.098c9.107-8.885 19.991-13.105 32.652-13.105h648.163c12.439 0 23.323 4.443 32.652 13.105 9.107 8.663 13.772 19.103 13.772 31.098-0.222 11.773-4.887 22.213-13.994 31.098z" />
<glyph unicode="&#xe907;" glyph-name="avathar" horiz-adv-x="1100" d="M547.984 443.557c109.952 0 199.247 108.397 199.247 242.117s-29.321 242.117-199.247 242.117c-169.926 0-199.247-108.397-199.247-242.117s89.072-242.117 199.247-242.117zM171.703 102.15c-0.222 8.219-0.222 2.221 0 0v0zM924.266 95.708c0 2.221 0 15.549 0 0v0zM923.821 111.924c-3.776 233.010-34.207 299.426-266.773 341.407l-109.064-184.142-109.064 183.92c-230.344-41.315-262.553-106.843-266.773-333.633-0.222-18.436-0.444-19.547-0.444-17.326 0-3.998 0-11.551 0-24.434 0 0 55.309-111.729 376.281-111.729s376.281 111.729 376.281 111.729c0 8.441 0 14.216 0 17.992 0-1.333-0.222 1.333-0.444 16.215z" />
<glyph unicode="&#xe908;" glyph-name="down-arrow" horiz-adv-x="1100" d="M82.409 691.672c-11.773-11.328-17.77-24.656-17.77-39.983s5.775-28.876 17.77-39.983l416.486-398.938c11.773-11.328 25.767-16.882 41.76-16.882s29.987 5.553 41.76 16.882l416.486 398.938c11.773 11.328 17.77 24.656 17.77 39.983s-5.997 28.876-17.77 39.983c-11.773 11.328-25.767 16.882-41.76 16.882h-832.972c-16.215 0-29.987-5.553-41.76-16.882z" />
<glyph unicode="&#xe909;" glyph-name="left-arrow" horiz-adv-x="1100" d="M728.573 907.356c-11.328 11.773-24.656 17.77-39.983 17.77s-28.876-5.775-39.983-17.77l-399.16-416.708c-11.328-11.773-16.882-25.767-16.882-41.76s5.553-29.987 16.882-41.76l398.938-416.486c11.328-11.773 24.656-17.77 39.983-17.77s28.876 5.997 39.983 17.77c11.328 11.773 16.882 25.767 16.882 41.76v832.972c0.222 16.215-5.553 30.209-16.659 41.982z" />
<glyph unicode="&#xe90a;" glyph-name="right-arrow" horiz-adv-x="1100" d="M390.053-6.247c11.328-11.773 24.656-17.77 39.983-17.77s28.876 5.775 39.983 17.77l398.938 416.486c11.328 11.773 16.882 25.767 16.882 41.76s-5.553 29.987-16.882 41.76l-398.716 416.93c-11.328 11.773-24.656 17.77-39.983 17.77s-28.876-5.997-39.983-17.77c-11.328-11.773-16.882-25.767-16.882-41.76v-833.194c-0.222-16.215 5.331-30.209 16.659-41.982z" />
<glyph unicode="&#xe90b;" glyph-name="up-arrow" horiz-adv-x="1100" d="M999.122 212.769c11.773 11.328 17.77 24.656 17.77 39.983s-5.775 28.876-17.77 39.983l-416.486 398.938c-11.773 11.328-25.767 16.882-41.76 16.882s-29.987-5.553-41.76-16.882l-416.708-398.938c-11.773-11.328-17.77-24.656-17.77-39.983s5.997-28.876 17.77-39.983c11.773-11.328 25.767-16.882 41.76-16.882h833.194c15.993-0.222 29.987 5.553 41.76 16.882z" />
<glyph unicode="&#xe90c;" glyph-name="down-chevron" horiz-adv-x="1100" d="M871.844 754.978l-338.298-338.964-338.075 338.964-133.942-134.386 472.017-472.906 472.239 472.906z" />
<glyph unicode="&#xe90d;" glyph-name="left-chevron" horiz-adv-x="1100" d="M814.98 789.407l-134.164 133.942-473.128-472.017 473.128-472.239 134.164 133.942-338.742 338.298z" />
<glyph unicode="&#xe90e;" glyph-name="right-chevron" horiz-adv-x="1100" d="M229.9 113.034l134.164-133.942 473.128 472.239-473.128 472.017-134.164-133.942 338.964-338.075z" />
<glyph unicode="&#xe90f;" glyph-name="up-chevron" horiz-adv-x="1100" d="M61.529 281.85l133.942-134.164 338.075 338.742 338.298-338.742 133.942 134.164-472.239 473.128z" />
<glyph unicode="&#xe910;" glyph-name="level-equal" horiz-adv-x="1100" d="M1048.212 353.152l-15.327 20.213c-7.997 7.997-20.213 12.217-28.432 12.217-12.217 0-20.213-3.998-28.432-12.217l-157.043-152.378c-12.217-12.217-36.429-3.998-36.429 16.215l-3.11 654.605c0 20.213-20.213 40.427-40.427 40.427h-49.312c-20.213 0-40.427-20.213-40.427-40.427v-890.947c0-12.217 3.998-20.213 12.217-28.432 7.997-7.997 20.213-12.217 28.432-12.217 12.217 0 20.213 3.998 28.432 12.217l323.859 323.859c7.997 7.997 12.217 16.215 12.217 28.432-0.222 12.217 1.999 20.436-6.22 28.432zM435.144 920.239c-7.997 7.997-20.213 12.217-28.21 12.217-12.217 0-20.213-3.998-28.21-12.217l-323.859-324.082c-7.997-7.997-12.217-16.215-12.217-28.432s-2.221-20.213 5.775-28.432l15.327-20.213c7.997-7.997 20.213-12.217 28.21-12.217 12.217 0 20.213 3.998 28.21 12.217l157.043 152.378c12.217 12.217 36.429 3.998 36.429-16.215l3.11-654.605c0-20.213 20.213-40.427 40.427-40.427h49.090c20.213 0 40.427 20.213 40.427 40.427v891.169c0.444 12.217-3.554 20.213-11.551 28.432z" />
<glyph unicode="&#xe911;" glyph-name="level-up" horiz-adv-x="1100" d="M942.036 578.388l-335.41 335.632c-11.995 12.217-28.654 19.103-45.758 19.103-17.326 0-33.763-6.664-45.758-19.103l-335.41-335.632c-25.322-25.322-25.322-66.193 0-91.738 25.322-25.322 66.193-25.322 91.738 0l224.791 225.013v-686.369c0-35.984 28.876-64.861 64.861-64.861s64.861 29.098 64.861 64.861v686.369l224.791-225.013c12.661-12.661 29.098-19.103 45.758-19.103s33.097 6.442 45.758 19.103c25.1 25.544 25.1 66.416-0.222 91.738z" />
<glyph unicode="&#xe912;" glyph-name="level-down" horiz-adv-x="1100" d="M942.036 315.169l-335.41-335.632c-11.995-12.217-28.654-19.103-45.758-19.103-17.326 0-33.763 6.664-45.758 19.103l-335.41 335.632c-25.322 25.322-25.322 66.193 0 91.738 25.322 25.322 66.193 25.322 91.738 0l224.791-225.013v686.369c0 35.984 28.876 64.861 64.861 64.861s64.861-29.098 64.861-64.861v-686.369l224.347 225.013c12.661 12.661 29.098 19.103 45.758 19.103s33.097-6.442 45.758-19.103c25.544-25.544 25.544-66.416 0.222-91.738z" />
<glyph unicode="&#xe913;" glyph-name="add" horiz-adv-x="1100" d="M936.705 537.072l-300.314-2.221 2.443 300.314c0.444 47.535-37.761 85.741-85.296 85.296s-86.407-39.094-86.629-86.629l-2.443-300.314-300.314-2.443c-47.535-0.444-86.407-39.094-86.629-86.629-0.444-47.535 37.761-85.741 85.296-85.296l300.314 2.443-2.443-300.314c-0.444-47.535 37.761-85.741 85.296-85.296 23.767 0.222 45.314 9.996 61.085 25.767s25.544 37.317 25.767 61.085l2.443 300.314 300.314 2.443c23.767 0.222 45.314 9.996 61.085 25.767s25.544 37.317 25.767 61.085c0 46.646-38.206 84.852-85.741 84.63z" />
<glyph unicode="&#xe914;" glyph-name="filter" horiz-adv-x="1100" d="M971.578 877.813h-854.74c-35.096 0-63.528-28.432-63.528-63.75 0-35.096 28.432-63.75 63.528-63.75h27.321l302.757-342.074v-364.953c0-4.665 2.443-8.885 6.22-11.328 3.998-2.443 8.663-2.666 12.883-0.444l160.597 81.52c9.107 4.665 14.66 13.772 14.66 23.99v271.438l302.757 342.074h27.321c35.096 0 63.528 28.432 63.528 63.75 0.222 35.096-28.21 63.528-63.306 63.528z" />
<glyph unicode="&#xe915;" glyph-name="info" horiz-adv-x="1100" d="M892.057 791.184c-187.918 188.141-492.897 188.363-681.038 0.444s-188.363-492.897-0.444-681.038c187.918-188.141 492.897-188.363 681.038-0.444s188.363 492.897 0.444 681.038zM618.62 145.243c0-7.33-5.997-13.55-13.55-13.55h-107.509c-7.33 0-13.55 5.997-13.55 13.55v399.382c0 7.33 5.997 13.55 13.55 13.55h107.509c7.33 0 13.55-5.997 13.55-13.55v-399.382zM551.316 613.928c-43.092 0-77.966 34.874-77.966 77.966s34.874 77.966 77.966 77.966 77.966-35.096 77.966-77.966c0-43.092-34.874-77.966-77.966-77.966z" />
<glyph unicode="&#xe916;" glyph-name="pause" horiz-adv-x="1100" d="M400.271 917.796h-181.255c-39.983 0-72.413-32.43-72.413-72.413v-796.987c0-39.983 32.43-72.413 72.413-72.413h181.255c39.983 0 72.413 32.43 72.413 72.413v796.987c0 39.983-32.43 72.413-72.413 72.413zM871.177 917.796h-181.255c-39.983 0-72.413-32.43-72.413-72.413v-796.987c0-39.983 32.43-72.413 72.413-72.413h181.255c39.983 0 72.413 32.43 72.413 72.413v796.987c0.222 39.983-32.208 72.413-72.413 72.413z" />
<glyph unicode="&#xe917;" glyph-name="folder" d="M956.416 646.656c0 0-39.424 0-52.224 0-5.632 0-5.12 9.216-5.12 9.216v28.16c0 37.376-28.16 67.584-62.464 67.584h-427.008c-3.072 0-6.144 6.144-12.8 19.456-1.024 2.048-2.048 4.096-2.56 5.632-22.016 44.544-50.176 54.272-70.144 54.272h-111.104c-28.16 0-45.056-17.92-64.512-52.736-1.536-2.048-2.56-4.608-3.584-6.656-6.144-11.776-11.264-19.968-14.848-19.968h-32.256c-34.304 0-62.464-30.208-62.464-67.584v-562.176c0-33.28 22.016-60.416 51.2-66.56 3.584-1.536 7.168-2.048 11.264-2.048h762.368c20.48 0 40.448 17.92 44.032 39.936l83.456 513.536c3.584 21.504-10.24 39.936-31.232 39.936zM844.288 646.656c-162.304 0-649.728 0-649.728 0-20.48 0-40.448-17.92-44.032-39.936l-62.464-381.44c0 0-3.072-12.8-3.072 10.752 0 112.128 0 448 0 448 0 7.168 5.632 13.312 12.288 13.312h32.256c32.256 0 47.616 27.648 57.856 46.592 1.024 2.048 2.048 4.096 3.584 6.144 10.24 17.92 17.92 26.624 27.648 26.624h105.984c3.072 0 13.312 0 25.6-25.088 1.024-1.536 1.536-3.584 2.56-5.12 9.216-19.456 23.040-48.64 56.832-48.64h427.52c6.656 0 12.288-6.144 12.288-13.312v-27.136c0 0 0.512-10.752-5.12-10.752z" />
</font>
</defs>
</svg>
